<svg width="640" height="480" xmlns="http://www.w3.org/2000/svg" xmlns:svg="http://www.w3.org/2000/svg">
 <!-- Created with SVG-edit - https://github.com/SVG-Edit/svgedit-->
 <g class="layer">
  <title>Layer 1</title>
  <rect fill="#ff0000" height="383" id="svg_17" rx="60" ry="60" stroke="#000000" stroke-width="5" width="397" x="71" y="67"/>
  <g id="svg_15">
   <path d="m367,151c-1.66,-1.07 -2.03,-1.56 -2.6,-2.4c-0.61,-0.89 -1,-1.5 -1.4,-2.12c-0.4,-0.63 -1,-1.64 -1.4,-2.36c-0.41,-0.74 -0.79,-1.49 -1.2,-2.23c-0.59,-1.07 -1,-1.74 -1.42,-2.4c-0.43,-0.69 -1.15,-1.81 -1.4,-2.22c-0.53,-0.86 -0.8,-1.31 -1.35,-2.21c-0.27,-0.45 -1.05,-1.72 -1.54,-2.48c-0.45,-0.71 -0.9,-1.39 -1.37,-2.05c-0.73,-1.04 -1,-1.41 -1.55,-2.14c-0.57,-0.75 -0.85,-1.14 -1.76,-2.21c-0.59,-0.69 -1.2,-1.33 -1.8,-1.96c-0.6,-0.61 -1.2,-1.21 -1.8,-1.81c-0.61,-0.6 -1.23,-1.21 -1.88,-1.8c-1.02,-0.92 -1.4,-1.21 -2.15,-1.8c-0.77,-0.61 -1.17,-0.9 -2.36,-1.8c-0.4,-0.3 -1.19,-0.9 -1.98,-1.48c-0.38,-0.29 -1.13,-0.84 -2.2,-1.6c-0.66,-0.47 -1.32,-0.91 -1.97,-1.32c-1,-0.62 -1.73,-1.01 -2.47,-1.4c-0.75,-0.4 -1.5,-0.79 -2.55,-1.4c-0.67,-0.39 -1.3,-0.8 -1.92,-1.2c-0.91,-0.6 -1.5,-1 -2.38,-1.58c-0.56,-0.37 -1.6,-1 -2.3,-1.4c-0.68,-0.38 -1.65,-0.95 -2.17,-1.27c-0.79,-0.49 -1.68,-1.14 -2.53,-1.31c-0.83,-0.17 -1.75,-0.01 -2.72,-0.26c-0.65,-0.17 -1.36,-0.51 -2.3,-0.78c-0.75,-0.22 -1.6,-0.4 -2.5,-0.6c-0.92,-0.2 -1.84,-0.4 -2.72,-0.6c-0.87,-0.2 -1.74,-0.4 -2.19,-0.5c-1.42,-0.31 -2.46,-0.5 -3,-0.6c-0.54,-0.1 -1.64,-0.27 -2.19,-0.35c-1.57,-0.21 -2.53,-0.28 -2.99,-0.3c-0.87,-0.05 -1.71,-0.05 -2.91,-0.06c-0.8,0 -1.59,0 -2.36,0c-0.75,0 -2.15,0 -2.8,0c-0.93,0 -1.84,0 -2.74,0c-0.9,0 -1.5,0 -2.7,0c-0.96,0 -1.67,0 -2.9,0c-0.46,0 -1.46,0 -2.52,0c-0.54,0 -1.08,0 -2.65,0c-0.96,0 -1.86,0 -2.29,0c-0.83,0 -2.04,0 -2.84,0c-0.79,0 -1.57,0 -3.03,0c-0.68,0 -1.6,0 -2.39,0c-0.96,0 -1.94,0 -2.79,0c-0.98,0 -1.78,0 -2.58,0c-1,0 -1.64,0 -2.82,0c-0.8,0 -1.63,0 -2.66,0c-0.7,0 -1.61,-0.01 -2.61,0c-0.82,0.01 -1.65,0.02 -2.63,0.28c-0.72,0.19 -1.44,0.54 -2.65,0.91c-0.68,0.21 -1.39,0.39 -2.06,0.6c-1.2,0.38 -1.93,0.69 -2.57,1c-1.01,0.49 -1.8,0.9 -2.6,1.3c-0.8,0.4 -1.39,0.73 -2.4,1.2c-0.79,0.37 -1.8,0.61 -2.4,0.7c-1,0.15 -1.85,0.35 -2.51,0.89c-0.82,0.66 -1.13,1.5 -1.69,2.23c-0.51,0.67 -1.28,1.38 -1.84,1.9c-0.41,0.39 -1.38,1.18 -1.91,1.58c-0.82,0.61 -1.38,0.98 -2.36,1.8c-0.46,0.38 -1.05,0.98 -1.89,1.58c-0.8,0.58 -1.5,0.97 -2.22,1.56c-0.54,0.45 -1.08,0.97 -1.89,1.77c-0.77,0.76 -1.23,1.23 -1.87,1.87c-0.81,0.81 -1.41,1.41 -1.97,1.97c-0.67,0.67 -1.25,1.17 -1.84,2c-0.45,0.64 -0.85,1.46 -1.48,2.23c-0.49,0.6 -1.03,1.12 -1.76,1.84c-0.56,0.56 -1.3,1.25 -1.86,2.08c-0.43,0.64 -1.02,1.41 -1.66,1.78c-0.75,0.44 -1.45,1.13 -1.76,1.58c-0.66,0.96 -0.96,1.82 -1.24,2.36c-0.53,1.05 -1.07,1.73 -1.65,2.35c-0.78,0.82 -1.21,1.19 -1.8,1.84c-0.82,0.91 -1.21,1.44 -1.78,2.26c-0.37,0.54 -1.02,1.57 -1.38,2.27c-0.35,0.67 -0.73,1.65 -1.05,2.45c-0.22,0.55 -0.73,1.63 -1.24,2.32c-0.5,0.67 -1.19,1.45 -1.59,2.06c-0.52,0.79 -1.06,1.61 -1.58,2.19c-0.51,0.57 -1.41,1.24 -1.81,1.96c-0.47,0.83 -0.38,1.7 -0.93,2.65c-0.37,0.64 -0.95,1.16 -1.33,2.2c-0.28,0.78 -0.53,1.62 -0.97,2.2c-0.62,0.82 -1.28,1.59 -1.62,2.22c-0.35,0.65 -0.72,1.66 -1.02,2.48c-0.3,0.82 -0.7,1.82 -1,2.5c-0.3,0.68 -0.7,1.69 -1.02,2.54c-0.23,0.62 -0.64,1.63 -0.96,2.34c-0.34,0.74 -0.7,1.49 -1.03,2.23c-0.47,1.06 -0.72,1.73 -1.11,2.67c-0.25,0.61 -0.86,1.81 -1.2,2.42c-0.35,0.63 -0.73,1.26 -1.15,2.31c-0.29,0.73 -0.51,1.5 -0.72,2.28c-0.32,1.19 -0.51,2 -0.7,2.82c-0.2,0.85 -0.41,1.75 -0.6,2.71c-0.21,1.03 -0.3,1.56 -0.5,2.6c-0.1,0.5 -0.24,1.46 -0.6,2.56c-0.26,0.79 -0.73,1.72 -1,2.71c-0.23,0.86 -0.3,1.34 -0.5,2.34c-0.1,0.51 -0.39,1.96 -0.6,2.8c-0.19,0.75 -0.4,1.43 -0.8,2.66c-0.2,0.6 -0.5,1.52 -0.7,2.16c-0.31,1.01 -0.52,1.72 -0.78,2.84c-0.18,0.74 -0.37,1.83 -0.44,2.51c-0.1,0.96 -0.09,1.59 -0.31,2.79c-0.17,0.91 -0.4,1.49 -0.61,2.7c-0.1,0.6 -0.15,1.5 -0.17,2.4c-0.01,0.9 0.02,1.8 -0.06,2.7c-0.08,0.9 -0.29,1.8 -0.46,2.4c-0.26,0.9 -0.69,2.1 -0.87,2.7c-0.27,0.9 -0.46,1.8 -0.56,2.7c-0.07,0.62 -0.11,1.58 -0.27,2.62c-0.11,0.74 -0.29,1.5 -0.43,2.28c-0.2,1.19 -0.28,1.99 -0.32,2.78c-0.04,0.77 -0.04,2.24 -0.04,2.93c0,0.65 0,1.58 0,2.79c0,0.6 0.01,1.51 -0.17,2.7c-0.09,0.6 -0.35,1.5 -0.48,2.1c-0.26,1.19 -0.33,2.1 -0.34,2.7c-0.03,1.2 -0.01,2.1 -0.01,2.72c0,0.96 0,2 0,2.73c0,0.75 0,1.86 0,2.93c0,0.66 -0.01,1.61 -0.09,2.22c-0.15,1.21 -0.43,2.1 -0.56,2.7c-0.26,1.19 -0.31,1.8 -0.34,2.74c-0.02,0.65 -0.01,2.05 -0.01,2.81c0,0.8 0,1.64 0,2.52c0,0.92 0,1.86 0,2.81c0,0.47 0,1.86 0,2.74c0,0.84 0,1.64 0,2.4c0,1.07 0,2.05 0,2.68c0,1.21 0,2.11 0,2.69c0,0.84 0,2.06 0,2.71c0,1.01 0,1.81 0,2.81c0,0.8 0,1.6 0,2.6c0,0.85 0,1.82 0,2.63c0,0.87 0,2.06 0,2.66c0,0.9 0,2.1 0,2.7c0,0.9 0,1.8 0,2.7c0,0.91 0,1.54 0,2.87c0,0.72 0,1.47 0,2.24c0,0.79 0,1.99 0,2.79c0,0.8 0,1.6 0,2.8c0,0.8 0,1.59 0,2.36c0,0.75 0,2.15 0,2.8c0,0.93 0,2.14 0,2.74c0,0.9 0,2.1 0,2.7c0,0.9 0,1.8 0,2.7c0,0.9 0,1.8 0,2.7c0,0.9 -0.01,1.52 0.09,2.49c0.1,1.04 0.26,1.77 0.44,2.51c0.17,0.75 0.58,2.18 0.77,2.84c0.19,0.64 0.47,1.55 0.62,2.76c0.07,0.61 0.08,1.56 0.09,2.57c0,0.72 0,1.48 0,2.28c0,0.84 0,2.17 0,3.11c0,0.47 0.01,1.42 0.08,2.36c0.06,0.92 0.19,1.8 0.35,2.65c0.16,0.83 0.37,1.63 0.66,2.84c0.2,0.8 0.39,1.58 0.54,2.34c0.21,1.09 0.29,1.77 0.34,2.76c0.03,0.65 0.02,2.02 0.02,2.75c0,0.75 0,1.49 0,2.58c0,1.01 -0.02,1.65 0.09,2.57c0.14,1.21 0.36,1.8 0.56,2.7c0.2,0.9 0.31,1.79 0.34,2.66c0.03,1.07 -0.03,1.79 0.07,2.69c0.11,0.98 0.37,1.79 0.55,2.36c0.38,1.19 0.58,1.79 0.89,2.67c0.29,0.84 0.71,1.83 1,2.54c0.31,0.75 0.61,1.62 0.9,2.63c0.2,0.7 0.35,1.4 0.8,2.58c0.27,0.72 0.8,1.61 1.3,2.27c0.5,0.67 0.88,1.36 1.39,2.1c0.56,0.82 1.14,1.38 1.63,2c0.63,0.78 1.08,1.6 1.48,2.4c0.4,0.8 0.78,1.61 1.2,2.4c0.42,0.78 0.94,1.47 1.62,1.97c0.66,0.47 1.55,1.03 2.27,1.74c0.51,0.49 1.2,1.2 1.9,1.9c0.5,0.5 1.13,1.3 1.76,1.64c0.83,0.46 1.67,0.33 2.64,0.64c0.79,0.26 1.57,0.83 2.23,1.31c0.84,0.62 1.53,1.03 2.49,1.32c0.75,0.22 1.69,0.55 2.4,0.8c0.85,0.3 1.82,0.26 2.75,0.29c0.79,0.03 1.82,0.19 2.49,0.41c0.77,0.26 1.79,0.56 2.75,0.57c0.86,0.01 1.52,0 2.2,0c1.26,0 2.03,0 2.9,0c1,0 1.8,0 2.8,0c0.8,0 1.8,0 2.58,0c1,0 1.9,0 2.85,0c0.69,0 1.67,0 2.66,0c0.73,0 1.71,0 2.51,0c1,0 1.79,0 2.83,0c0.79,0 1.65,0 2.51,0c1.02,0 1.91,0.16 2.75,-0.22c0.78,-0.36 1.5,-0.77 2.4,-0.78c0.9,-0.01 1.63,-0.41 2.5,-0.83c0.75,-0.37 1.47,-0.73 2.3,-1.11c0.87,-0.4 1.5,-0.85 2.1,-1.45c0.7,-0.7 1.3,-1.3 1.9,-1.9c0.7,-0.7 1.32,-1.28 1.9,-1.9c0.62,-0.66 1.08,-1.47 1.56,-2.2c0.53,-0.82 1.09,-1.36 1.53,-1.94c0.65,-0.87 0.84,-1.84 1.15,-2.48c0.33,-0.71 1.16,-1.44 1.48,-2.37c0.29,-0.86 0.31,-1.77 0.66,-2.4c0.48,-0.86 0.33,-1.73 0.65,-2.72c0.23,-0.71 0.84,-1.47 1.26,-2.18c0.47,-0.78 0.48,-1.73 0.74,-2.7c0.16,-0.61 0.54,-1.39 0.73,-2.4c0.14,-0.74 0.59,-1.73 0.89,-2.57c0.23,-0.64 0.3,-1.84 0.52,-2.43c0.31,-0.82 0.87,-1.79 1.12,-2.42c0.26,-0.65 0.46,-1.66 0.5,-2.46c0.06,-1.19 0.02,-2 0.02,-3c0,-0.69 -0.08,-1.76 0,-2.62c0.08,-0.91 0.76,-1.44 0.98,-2.4c0.2,-0.88 -0.07,-1.8 0.02,-2.7c0.08,-0.81 0.8,-1.45 0.98,-2.32c0.19,-0.94 -0.11,-1.66 0.03,-2.72c0.11,-0.88 0.84,-1.52 0.98,-2.36c0.15,-0.89 0.01,-1.8 0.01,-2.7c0,-0.9 -0.18,-1.85 0.17,-2.7c0.28,-0.67 0.82,-1.5 0.83,-2.4c0.01,-0.9 -0.12,-1.81 0,-2.7c0.11,-0.8 1.1,-0.9 2,-0.9c0.76,0 1.67,0 2.52,0c1.12,0 1.8,0 2.54,0c0.8,0 2.1,0 3.02,0c0.48,0 1.45,0 1.96,0c1.04,0 2.12,0 3.23,0c0.56,0 1.68,0 2.22,0c1.04,0 2.43,0 3.22,0c0.69,0 1.59,0 2.59,0c0.87,0 1.89,0 2.66,0c0.85,0 1.72,0 2.62,0c0.9,0 1.8,0 2.7,0c0.9,0 1.8,0 2.7,0c0.8,0 1.7,0 2.6,0c0.9,0 1.8,0 2.7,0c0.9,0 1.8,0 2.7,0c0.76,0 1.65,0 2.52,0c0.96,0 1.88,0 2.78,0c0.9,0 1.8,0 2.7,0c0.8,0 1.7,0 2.6,0l0.9,0l0.9,0" fill="none" id="svg_11" stroke="#000000" stroke-width="5"/>
   <path d="m296,350c0,1.76 0,2.66 0,3.4c0,1 0,1.83 0,2.76c0,0.79 0,1.61 0,2.67c0,0.94 0,1.62 0,2.85c0,0.8 0,1.55 0,2.51c0,0.98 0,1.85 0,2.5c0,1 0,1.81 0,2.63c0,1.23 -0.01,1.87 0,2.88c0.01,0.8 0.15,1.8 0.43,2.6c0.28,0.81 0.54,1.8 0.57,2.6c0.04,1 -0.03,1.82 0.23,2.8c0.16,0.6 0.69,1.62 0.77,2.39c0.1,0.91 -0.08,1.86 0.29,2.61c0.44,0.87 0.79,1.49 1.22,2.32c0.4,0.79 0.39,1.7 0.78,2.59c0.33,0.74 0.74,1.49 1.14,2.3c0.45,0.91 0.44,1.63 0.8,2.57c0.31,0.83 0.66,1.69 0.83,2.37c0.22,0.92 1.06,1.57 1.51,2.29c0.49,0.78 0.32,1.59 0.72,2.48c0.31,0.69 1,1.55 1.41,2.23c0.48,0.78 0.78,1.59 1.35,2.3c0.59,0.73 1.39,1.1 1.89,1.71c0.57,0.7 0.79,1.52 1.55,2.12c0.65,0.51 1.62,0.71 2.2,1.23c0.73,0.65 1.41,1.14 2.19,1.38c0.97,0.3 1.52,0.62 2.51,1.12c0.8,0.4 1.6,0.8 2.4,1.2c0.6,0.3 1.58,0.84 2.4,1.16c0.78,0.31 1.61,0.36 2.4,0.52c1.01,0.2 1.78,0.63 2.8,0.83c0.61,0.12 1.77,0.24 2.55,0.44c0.79,0.21 1.71,0.54 2.55,0.63c1.04,0.1 1.76,0.02 2.55,0.02c1.03,0 1.95,0 2.63,0c1,0 1.84,0 2.72,0c0.9,0 1.79,0 2.64,0c1.04,0 1.94,0 2.96,0c0.8,0 1.6,0 2.6,0c0.8,0 1.8,0 2.56,0c0.95,0 1.84,0 2.64,0c0.9,0 1.8,0 2.72,0c0.96,0 1.69,0 2.68,0c0.8,0 1.8,0 2.59,0c1.04,0 1.8,0 2.73,0c0.96,0 1.65,0 2.73,0c0.92,0 1.75,0 2.59,0c0.86,0 1.77,0.01 2.67,0c0.89,-0.01 1.46,-0.68 2.15,-1.03c0.78,-0.39 1.7,-0.63 2.3,-1.37c0.54,-0.66 1.23,-1.17 2.03,-1.48c0.9,-0.35 1.35,-0.94 2.12,-1.34c0.76,-0.4 1.62,-0.63 2.29,-1.21c0.7,-0.61 0.84,-1.66 1.32,-2.32c0.51,-0.72 0.86,-1.44 1.4,-2.22c0.47,-0.67 1.08,-1.52 1.54,-2.23c0.51,-0.8 1.04,-1.37 1.54,-2.03c0.69,-0.91 0.95,-1.45 1.33,-2.28c0.26,-0.58 0.81,-1.78 1.15,-2.37c0.51,-0.88 0.89,-1.4 1.46,-2.42c0.38,-0.67 0.71,-1.36 1.09,-2.37c0.32,-0.85 0.51,-1.47 0.8,-2.48c0.21,-0.72 0.5,-1.83 0.7,-2.58c0.3,-1.09 0.5,-1.77 0.7,-2.42c0.29,-0.93 0.61,-1.83 0.9,-2.74c0.19,-0.6 0.46,-1.49 0.62,-2.7c0.08,-0.6 0.09,-1.51 0.31,-2.7c0.11,-0.6 0.37,-1.5 0.49,-2.1c0.24,-1.19 0.27,-2.1 0.34,-2.7c0.14,-1.2 0.38,-2.1 0.52,-2.7c0.28,-1.2 0.36,-1.8 0.4,-2.68c0.04,-0.83 0.02,-1.84 0.02,-2.75c0,-0.94 0,-1.73 0,-2.59c0,-1.19 0,-1.79 0,-2.67c0,-0.84 0,-1.84 0,-2.75c0,-0.94 0,-1.73 0,-2.59c0,-1.19 0,-1.79 0,-2.69c0,-0.9 0,-1.8 0,-2.7c0,-0.9 0,-1.8 0,-2.7c0,-0.93 0,-1.58 0,-2.62c0,-0.74 0,-1.89 0,-2.68c0,-1.2 0,-1.99 0,-2.78c0,-0.76 0,-1.85 0,-2.54c0,-0.96 0,-1.58 0,-2.79c0,-0.9 0,-1.5 0,-2.7c0,-0.9 0,-1.76 0,-2.83c0,-0.71 0,-1.39 0,-2.59c0,-0.81 0,-1.39 0,-2.58c0,-0.9 0,-1.52 0,-2.49c0,-1.04 0,-1.77 0,-2.51c0,-1.12 0,-2.18 0,-2.84c0,-0.95 0,-1.56 0,-2.76c0,-0.9 0,-1.5 0,-2.7c0,-0.91 0,-1.54 0,-2.87c0,-0.72 0,-1.5 0,-2.35c0,-0.46 0,-1.98 0,-2.55c0,-1.19 0,-1.81 0,-2.44c0,-1.24 0,-1.85 0,-3c0,-1.04 0,-1.99 0,-2.44c0,-0.85 0,-2.06 0,-2.86c0,-0.8 0,-1.6 0,-2.4c0,-1.2 0,-2 0,-2.78c0,-1.14 0,-2.2 0,-2.87c0,-0.98 0,-1.64 0,-2.67c0,-0.74 0,-1.89 0,-2.68c0,-1.2 0,-1.99 0,-2.78c0,-0.76 0,-1.85 0,-2.54c0,-0.98 0,-1.64 0,-3.01c0,-0.73 0,-1.48 -0.06,-2.23c-0.08,-1.09 -0.29,-2.1 -0.44,-2.73c-0.21,-0.92 -0.41,-1.82 -0.46,-2.72c-0.06,-0.9 -0.03,-1.8 -0.04,-2.7c-0.01,-0.62 -0.06,-1.58 -0.22,-2.62c-0.11,-0.73 -0.29,-1.48 -0.43,-2.23c-0.26,-1.43 -0.31,-2.09 -0.34,-3.01c-0.03,-1.08 0.03,-1.8 -0.07,-2.7c-0.11,-0.98 -0.38,-1.78 -0.52,-2.36c-0.28,-1.18 -0.38,-2.08 -0.4,-2.67c-0.04,-0.83 0.01,-2.07 -0.06,-2.75c-0.12,-1.2 -0.39,-1.99 -0.54,-2.51c-0.31,-1.12 -0.42,-1.92 -0.65,-2.8c-0.18,-0.72 -0.47,-1.5 -0.66,-2.54c-0.16,-0.89 -0.27,-1.93 -0.55,-2.72c-0.28,-0.81 -0.48,-1.6 -0.6,-2.44c-0.13,-0.93 -0.31,-1.72 -0.59,-2.54c-0.36,-1.07 -0.68,-1.77 -1.09,-2.62c-0.39,-0.81 -0.83,-1.61 -1.01,-2.29c-0.27,-0.98 -0.25,-1.82 -0.37,-2.63c-0.15,-1.01 -0.45,-1.68 -0.92,-2.85c-0.21,-0.52 -0.49,-1.34 -0.8,-2.15c-0.39,-1.01 -0.77,-1.66 -1.03,-2.85c-0.17,-0.78 -0.16,-1.61 -0.25,-2.15c-0.2,-1.24 -0.53,-1.87 -1.02,-2.88c-0.29,-0.6 -0.7,-1.38 -0.84,-2.4c-0.13,-0.91 -0.02,-1.8 -0.22,-2.74c-0.15,-0.68 -0.44,-1.41 -0.71,-2.52c-0.2,-0.83 -0.73,-1.59 -1.07,-2.45c-0.33,-0.83 -0.57,-1.49 -0.89,-2.53c-0.22,-0.74 -0.01,-1.68 -0.18,-2.57c-0.18,-0.95 -0.74,-1.63 -1.07,-2.4c-0.33,-0.76 -0.86,-1.68 -0.91,-2.37c-0.06,-0.94 -0.15,-2.01 -0.45,-2.65c-0.33,-0.71 -1.08,-1.49 -1.4,-2.34c-0.29,-0.8 -0.41,-1.8 -0.74,-2.42c-0.42,-0.8 -0.35,-1.71 -0.43,-2.61c-0.08,-0.98 -0.5,-1.6 -0.83,-2.63c-0.25,-0.78 -0.47,-1.64 -0.74,-2.34c-0.37,-0.93 -0.49,-1.66 -0.99,-2.59c-0.4,-0.75 -0.98,-1.42 -1.26,-2.26c-0.31,-0.94 -0.18,-1.83 -0.78,-2.57c-0.53,-0.65 -1.04,-1.23 -1.44,-2.1c-0.39,-0.83 -0.83,-1.65 -1.37,-2.27c-0.52,-0.6 -0.93,-1.33 -1.57,-2.03c-0.56,-0.6 -1.01,-1.36 -1.57,-2.03c-0.51,-0.6 -1.17,-1.18 -1.59,-1.97c-0.34,-0.64 -0.83,-1.48 -1.41,-2.03l-0.42,-0.68l-0.06,-0.94" fill="none" id="svg_12" stroke="#000000" stroke-width="5"/>
   <path d="m180,170c-1,-1 -1.8,-1 -2.64,-1c-1.02,0 -1.77,0 -2.76,0c-0.77,0 -1.72,0.01 -2.77,0c-0.67,-0.01 -1.45,-0.03 -2.43,-0.35c-0.76,-0.25 -1.78,-0.63 -2.73,-0.65c-0.68,-0.01 -1.66,0 -2.56,0c-0.94,0 -1.63,0 -2.62,0c-0.99,0 -1.71,0 -2.7,0c-0.8,0 -1.8,0 -2.59,0c-1.04,0 -1.91,0 -2.71,0c-0.9,0 -1.8,0 -2.7,0c-0.9,0 -1.8,0 -2.69,0c-0.94,0 -1.63,0 -2.61,0c-0.99,0 -1.71,0 -2.7,0c-0.78,0 -1.78,0 -2.6,0c-0.9,0 -1.8,0 -2.7,0c-0.91,0 -1.82,0 -2.67,0c-0.94,0 -1.83,0 -2.63,0c-0.9,0 -1.87,-0.08 -2.6,0.44c-0.79,0.55 -1.24,1.2 -1.92,1.89c-0.51,0.51 -1.23,1.25 -1.79,2.08c-0.39,0.58 -0.87,1.61 -1.19,2.2c-0.43,0.81 -1.01,1.6 -1.52,2.2c-0.52,0.6 -1.18,1.38 -1.65,2.2c-0.34,0.59 -0.82,1.6 -1.12,2.2c-0.5,1 -0.86,1.8 -1.4,2.63c-0.37,0.57 -1.02,1.49 -1.3,2.17c-0.29,0.73 -0.51,1.67 -0.7,2.47c-0.25,1.01 -0.61,1.68 -0.92,2.64c-0.28,0.88 -0.75,1.53 -0.96,2.43c-0.17,0.71 -0.11,1.52 -0.34,2.54c-0.22,0.94 -0.55,1.6 -0.69,2.61c-0.11,0.83 -0.08,1.72 -0.09,2.61c-0.01,0.9 -0.02,1.81 -0.17,2.7c-0.15,0.91 -0.37,1.49 -0.55,2.4c-0.24,1.19 -0.24,1.81 -0.34,2.76c-0.1,1.01 -0.23,1.73 -0.37,2.47c-0.22,1.12 -0.42,2.21 -0.49,2.89c-0.06,0.66 -0.08,1.64 -0.09,2.65c0,0.72 0,1.83 0,2.58c0,1.09 0,1.77 0,2.73c0,0.62 0,1.82 0,2.72c0,0.6 0,1.8 0,2.7c0,0.6 0,1.5 0,2.7c0,0.6 0,1.5 0,2.7c0,0.6 0.01,1.51 -0.17,2.7c-0.09,0.6 -0.36,1.49 -0.55,2.4c-0.19,0.89 -0.26,1.79 -0.28,2.64c-0.02,1.04 0,1.73 0,2.64c0,1 0,1.82 0,2.63c0,1 0,1.95 0,3.02c0,0.63 0,1.32 0,2.36c0,0.97 0,1.8 0,2.75c0,0.97 0,1.78 0,2.6c0,1.03 0,1.72 0,2.55c0,1 0,1.8 0,2.8c0,0.83 0,1.77 0,2.55c0,0.82 0,1.88 0,2.81c0,0.83 0,1.84 0,2.69c0,0.96 0,1.77 0,2.59c0,1.03 0,1.74 0,2.72c0,0.87 0,1.88 0,2.58c0,0.68 0,1.88 0,2.63c0,1.19 0,1.97 0,2.8c0,1.06 0,1.76 0,2.56c0,1.04 -0.04,1.99 0.02,2.68c0.09,0.99 0.46,1.76 0.7,2.58c0.29,0.98 0.28,1.8 0.28,2.8c0,0.8 -0.07,1.8 0.02,2.58c0.11,1.01 0.73,1.55 0.94,2.43c0.22,0.89 -0.01,1.82 0.26,2.79c0.22,0.8 0.53,1.66 0.8,2.39c0.31,0.85 0.85,1.62 1.06,2.3c0.3,0.97 0.72,1.72 1.12,2.51c0.4,0.8 0.83,1.59 1.19,2.4c0.35,0.79 0.49,1.81 0.66,2.54c0.22,0.92 0.89,1.72 1.45,2.14c0.82,0.6 1.44,1.1 2.11,1.55c0.74,0.49 1.6,0.81 2.49,0.97c0.8,0.15 1.23,0.81 2,1.22c0.76,0.4 1.6,0.78 2.5,0.78c0.9,0 1.79,0.01 2.4,0.5c0.61,0.49 1.51,0.36 2.4,0.51c0.83,0.14 1.59,0.9 2.4,0.99c0.83,0.09 1.85,0 2.55,0c1.03,0.01 1.97,0.23 2.65,0.5c0.97,0.39 1.7,0.5 2.6,0.5c0.9,0 1.81,0 2.72,0c0.85,0 1.79,0 2.68,0c0.8,0 1.7,0 2.6,0c0.9,0 1.8,0 2.7,0c0.9,0 1.8,0 2.7,0c0.8,0 1.7,0 2.6,0l0.96,0.04l0.49,0.61" fill="none" id="svg_13" stroke="#000000" stroke-width="5"/>
  </g>
  <ellipse cx="352" cy="192" fill="#00ffff" id="svg_14" rx="99" ry="15" stroke="#000000" stroke-width="5"/>
 </g>
</svg>
